<?xml version="1.0" standalone="no"?>
<!DOCTYPE svg PUBLIC "-//W3C//DTD SVG 20010904//EN"
 "http://www.w3.org/TR/2001/REC-SVG-20010904/DTD/svg10.dtd">
<svg version="1.0" xmlns="http://www.w3.org/2000/svg"
 width="446.000000pt" height="512.000000pt" viewBox="0 0 446.000000 512.000000"
 preserveAspectRatio="xMidYMid meet">

<g transform="translate(0.000000,512.000000) scale(0.100000,-0.100000)"
fill="#2563eb" stroke="none">
<path d="M3562 5020 c-117 -48 -215 -90 -217 -92 -3 -2 38 -39 91 -82 55 -45
92 -82 88 -88 -4 -6 -93 -124 -197 -262 -343 -454 -701 -851 -1442 -1596 -325
-328 -1195 -1246 -1799 -1899 -23 -25 42 34 144 130 1565 1474 1988 1883 2414
2334 380 402 683 753 904 1047 l125 166 86 -50 c47 -28 92 -55 99 -61 7 -5 14
-8 16 -6 2 2 -12 127 -32 277 -30 224 -39 272 -52 271 -8 0 -111 -40 -228 -89z"/>
<path d="M4000 2060 l0 -2060 230 0 230 0 0 2060 0 2060 -230 0 -230 0 0
-2060z"/>
<path d="M3367 2533 c-4 -438 -7 -1187 -7 -1665 l0 -868 230 0 230 0 0 1665 0
1665 -223 0 -224 0 -6 -797z"/>
<path d="M2700 1420 l0 -1420 230 0 230 0 0 1420 0 1420 -230 0 -230 0 0
-1420z"/>
<path d="M2070 1120 l0 -1120 230 0 230 0 0 1120 0 1120 -230 0 -230 0 0
-1120z"/>
<path d="M1420 915 l0 -895 230 0 230 0 0 895 0 895 -230 0 -230 0 0 -895z"/>
<path d="M780 645 l0 -625 230 0 230 0 0 625 0 625 -230 0 -230 0 0 -625z"/>
<path d="M150 350 l0 -330 230 0 230 0 0 330 0 330 -230 0 -230 0 0 -330z"/>
</g>
</svg>
