<svg width="200" height="200" viewBox="0 0 256 256" xmlns="http://www.w3.org/2000/svg" preserveAspectRatio="xMidYMid">
    <path fill="#25D366" d="M48.3 207.2l9.3-34.2a94.1 94.1 0 0 1-19.6-57.4c.1-52 42.4-94.2 94.5-94.1 25.3 0 49.1 9.8 67.1 27.7 18 18 27.9 41.8 28 67.1.1 52-42.3 94.4-94.3 94.5h-.1c-15.3 0-30.3-3.7-43.8-10.8l-40.4 7.2zm45.1-22.7l3.3 1.9c12.1 6.9 25.8 10.5 39.8 10.5h.1c44.4 0 80.5-36.1 80.4-80.5-.1-21.5-8.4-41.7-23.6-56.9-15.2-15.1-35.4-23.5-56.9-23.5-44.4 0-80.5 36.1-80.5 80.4 0 15.4 4.3 30.4 12.3 43.4l2 3.3-5.5 20.2 20.6-5.3zm69-37.5c-3.6-1.8-8.4-4-12.8-2.3-3.3 1.3-5.4 6.3-7.5 8.8-1.1 1.3-2.3 1.4-3.8.8-11.6-4.6-20.7-12.2-27.3-22.8-1.2-1.9-1-3.5.6-5.2 2.1-2.5 5-5.3 5.7-8.6.7-3.4-.8-7.2-2-10.5-.6-1.6-1.3-3.8-2.7-5-1.3-1.1-3.3-.8-4.9-.5-4.2.7-8.2 2.5-11.1 5.7-5.8 6.2-6.5 15.2-5.1 23.3 1.6 9.5 6.3 18 12.6 25.3 9.2 10.7 21 18.5 34.3 23.1 7 2.4 14.9 4.5 22.2 2.5 7.3-2 13.2-8.3 14.9-15.7.5-2.2.8-4.8-.3-6.9-.9-1.7-2.7-2.6-4.4-3.5z"/>
</svg>
